<svg xmlns="http://www.w3.org/2000/svg" viewBox="5 -1 12 25" height="17" width="17" fill="#686b78"><path d="M17.6671481,17.1391632 L22.7253317,22.1973467 L20.9226784,24 L15.7041226,18.7814442 C14.1158488,19.8024478 12.225761,20.3946935 10.1973467,20.3946935 C4.56550765,20.3946935 0,15.8291858 0,10.1973467 C0,4.56550765 4.56550765,0 10.1973467,0 C15.8291858,0 20.3946935,4.56550765 20.3946935,10.1973467 C20.3946935,12.8789625 19.3595949,15.3188181 17.6671481,17.1391632 Z M10.1973467,17.8453568 C14.4212261,17.8453568 17.8453568,14.4212261 17.8453568,10.1973467 C17.8453568,5.97346742 14.4212261,2.54933669 10.1973467,2.54933669 C5.97346742,2.54933669 2.54933669,5.97346742 2.54933669,10.1973467 C2.54933669,14.4212261 5.97346742,17.8453568 10.1973467,17.8453568 Z"></path></svg>